#!OML:ASF \\Waltz\H\Terrain\Patient Classification 1\Animal1\Tuesday\Animal1.ASF
:FULLY-SPECIFIED
:DEGREES
886
root 16.7253 16.1006 -12.29 -166.173 -27.6314 -169.016
lowerback 26.1943 -0.668576 4.39418
upperback 5.02243 -0.373142 1.77507
thorax -8.93528 -0.634496 -0.37267
lowerneck -7.70879 7.63818 -2.04321
upperneck -17.1212 8.44304 -6.4847
head -4.11011 3.96017 -1.87366
rclavicle -4.37326e-014 1.35174e-014
rhumerus 7.37207 26.1653 -78.6989
rradius 109.62
rwrist 14.7271
rhand 30.0992 -3.79612
rfingers 7.12502
rthumb 53.7961 -22.7711
lclavicle -4.37326e-014 1.35174e-014
lhumerus -10.2269 -22.8656 100.508
lradius 105.177
lwrist -64.933
lhand 32.7263 47.0506
lfingers 7.12502
lthumb 56.1399 64.3313
rfemur -45.5295 7.29605 21.2111
rtibia 57.9307
rfoot 15.7464 2.88642
rtoes -31.8271
lfemur -54.554 -4.80363 -27.1892
ltibia 46.7454
lfoot 16.334 -0.887636
ltoes 33.6017
887
root 16.7429 16.0828 -12.4431 -165.693 -28.2903 -168.877
lowerback 25.2707 -0.564113 4.36924
upperback 4.94918 -0.249785 1.74572
thorax -8.54137 -0.550816 -0.446936
lowerneck -7.81873 7.76703 -2.00612
upperneck -16.8741 8.63812 -6.75788
head -3.97957 4.07615 -1.95621
rclavicle 2.62396e-014 8.74653e-015
rhumerus 7.74064 26.464 -78.4639
rradius 109.459
rwrist 14.8003
rhand 30.2449 -4.46203
rfingers 7.12502
rthumb 53.927 -23.3493
lclavicle 2.62396e-014 8.74653e-015
lhumerus -10.2034 -22.5802 100.341
lradius 105.089
lwrist -65.7441
lhand 32.0508 46.6677
lfingers 7.12502
lthumb 55.5407 64.4079
rfemur -48.2298 5.88011 21.8999
rtibia 60.9431
rfoot 16.9469 5.71655
rtoes -29.2578
lfemur -54.0467 -4.79184 -27.3418
ltibia 46.2294
lfoot 15.7577 -1.68297
ltoes 34.6631
888
root 16.7598 16.0699 -12.5874 -165.189 -28.9255 -168.918
lowerback 24.6181 -0.487807 4.15869
upperback 4.79036 -0.186989 1.69249
thorax -8.38306 -0.49353 -0.414368
lowerneck -8.18831 7.93428 -2.1272
upperneck -16.3584 8.95044 -6.81515
head -3.72086 4.24875 -1.91713
rclavicle -2.70347e-014 -1.35174e-014
rhumerus 8.13025 26.8195 -78.2595
rradius 109.28
rwrist 14.8147
rhand 31.1275 -4.73156
rfingers 7.12502
rthumb 54.7177 -23.0725
lclavicle -2.70347e-014 -1.35174e-014
lhumerus -10.0952 -22.2082 100.107
lradius 104.78
lwrist -66.2093
lhand 31.8199 46.045
lfingers 7.12502
lthumb 55.3353 63.9384
rfemur -50.8541 5.00679 21.9381
rtibia 63.5339
rfoot 18.9874 6.35977
rtoes -21.6332
lfemur -53.4799 -4.70581 -27.6582
ltibia 45.69
lfoot 14.1078 -2.62252
ltoes 32.1699
889
root 16.7781 16.0586 -12.7178 -164.586 -29.6054 -169.498
lowerback 24.3951 -0.388359 3.58929
upperback 4.59526 -0.171989 1.50602
thorax -8.48929 -0.455789 -0.301595
lowerneck -9.06074 8.04194 -2.18305
upperneck -15.5432 9.20509 -6.87022
head -3.26937 4.3713 -1.84947
rclavicle 1.51076e-014 1.03368e-014
rhumerus 8.45167 27.0103 -78.1576
rradius 109.071
rwrist 14.8608
rhand 31.6629 -4.37909
rfingers 7.12502
rthumb 55.1954 -22.3755
lclavicle 1.51076e-014 1.03368e-014
lhumerus -9.84513 -21.9313 99.812
lradius 104.35
lwrist -66.0727
lhand 31.9601 45.5184
lfingers 7.12502
lthumb 55.46 63.319
rfemur -52.9857 4.30109 21.2223
rtibia 65.5427
rfoot 19.314 8.44207
rtoes -21.0672
lfemur -52.9316 -4.72748 -28.3822
ltibia 45.166
lfoot 12.4507 -2.91256
ltoes 30.927
890
root 16.7892 16.0452 -12.8475 -164.141 -30.5621 -169.985
lowerback 24.1271 -0.425522 3.37033
upperback 4.18725 -0.214846 1.29933
thorax -8.80917 -0.447215 -0.392522
lowerneck -8.06758 8.08794 -1.76722
upperneck -15.6804 9.21692 -7.37838
head -3.44415 4.41683 -2.13632
rclavicle 6.87795e-014 -2.06736e-014
rhumerus 7.90117 27.2182 -78.5534
rradius 108.966
rwrist 15.1387
rhand 31.7852 -2.96097
rfingers 7.12502
rthumb 55.3044 -20.8772
lclavicle 6.87795e-014 -2.06736e-014
lhumerus -10.255 -21.6613 99.8652
lradius 104.159
lwrist -66.0838
lhand 32.5023 44.5077
lfingers 7.12502
lthumb 55.9415 61.9427
rfemur -54.3606 3.25681 20.9834
rtibia 66.6228
rfoot 16.5651 11.5217
rtoes -28.1857
lfemur -52.4201 -4.96072 -28.9051
ltibia 44.772
lfoot 11.3108 -2.97295
ltoes 31.4948
891
root 16.7999 16.0381 -12.9715 -164.002 -31.8156 -170.238
lowerback 24.1326 -0.574986 3.6033
upperback 3.84035 -0.301332 1.09243
thorax -9.20438 -0.482209 -0.725927
lowerneck -7.08772 8.09418 -1.29219
upperneck -16.0879 9.1321 -7.90434
head -3.71714 4.40451 -2.45617
rclavicle -4.77083e-015 -1.28812e-013
rhumerus 7.25044 27.2875 -79.1476
rradius 108.96
rwrist 15.872
rhand 31.9327 -1.04103
rfingers 7.12502
rthumb 55.4356 -18.8599
lclavicle -4.77083e-015 -1.28812e-013
lhumerus -10.7591 -21.7021 100.058
lradius 104.197
lwrist -66.4311
lhand 33.6041 43.9784
lfingers 7.12502
lthumb 56.9147 60.6352
rfemur -55.1206 2.62955 20.6641
rtibia 66.5376
rfoot 15.3603 10.0606
rtoes -27.999
lfemur -51.8167 -5.22303 -29.2254
ltibia 44.5628
lfoot 10.6096 -3.50433
ltoes 30.7685
